<svg xmlns="http://www.w3.org/2000/svg" viewBox="0 0 64 64" width="64" height="64">
  <defs>
    <linearGradient id="tile" x1="0" y1="0" x2="1" y2="1">
      <stop offset="0" stop-color="#FF6F61"/>
      <stop offset="1" stop-color="#FFC4A0"/>
    </linearGradient>
  </defs>
  <rect x="2" y="2" width="60" height="60" rx="16" fill="url(#tile)"/>
  <path d="M16 18h32a6 6 0 0 1 6 6v14a6 6 0 0 1-6 6H30l-9 8v-8h-5a6 6 0 0 1-6-6V24a6 6 0 0 1 6-6z" fill="#FFF2E8"/>
  <path d="M32 38c-5-3.4-8-6.2-8-9.6a3.6 3.6 0 0 1 6.6-2A4.2 4.2 0 0 1 32 27a4.2 4.2 0 0 1 1.4-0.6 3.6 3.6 0 0 1 6.6 2c0 3.4-3 6.2-8 9.6z" fill="#FF6F61"/>
</svg>
