<svg xmlns="http://www.w3.org/2000/svg" viewBox="0 0 64 64" width="64" height="64">
  <defs>
    <linearGradient id="tile" x1="0" y1="0" x2="0.9" y2="1">
      <stop offset="0" stop-color="#FF8E6E"/>
      <stop offset="1" stop-color="#FFC4A0"/>
    </linearGradient>
  </defs>
  <rect x="0" y="0" width="64" height="64" rx="14" fill="url(#tile)"/>
  <path d="M32 13.875 C44.125 13.875 52.5 21.375 52.5 31.375 C52.5 41.375 44.125 48.875 32 48.875 L27 48.875 C24.25 48.875 22.875 51.125 21.5 53.5 C21 50.875 21.125 49.75 21.375 48.5 C16 45.75 11.5 39.125 11.5 31.375 C11.5 21.375 19.875 13.875 32 13.875 Z" fill="#FFFDF9"/>
  <g fill="#FF6F61">
    <rect x="22.25" y="30.5" width="3.25" height="7.5" rx="1.625"/>
    <rect x="27.375" y="33" width="3.25" height="9.375" rx="1.625"/>
    <rect x="33.375" y="33" width="3.25" height="9.375" rx="1.625"/>
    <rect x="38.5" y="30.5" width="3.25" height="7.5" rx="1.625"/>
  </g>
  <path d="M32 20.75 C31.125 18.875 28.875 18.125 27.375 19.4375 C25.875 20.75 26.0625 23 27.75 24.625 L32 28.75 L36.25 24.625 C37.9375 23 38.125 20.75 36.625 19.4375 C35.125 18.125 32.875 18.875 32 20.75 Z" fill="#FF6F61"/>
</svg>
